<svg xmlns="http://www.w3.org/2000/svg" width="1600" height="420" viewBox="0 0 1600 420" role="img" aria-labelledby="title desc">
  <title id="title">sat-geoip</title>
  <desc id="desc">Satellite internet GeoIP, PoP, and BGP intelligence dataset pipeline.</desc>
  <defs>
    <linearGradient id="bg" x1="0" y1="0" x2="1" y2="1">
      <stop offset="0" stop-color="#0b1220"/>
      <stop offset="0.55" stop-color="#12263a"/>
      <stop offset="1" stop-color="#14342f"/>
    </linearGradient>
    <filter id="soft" x="-20%" y="-20%" width="140%" height="140%">
      <feGaussianBlur stdDeviation="1.5"/>
    </filter>
  </defs>
  <rect width="1600" height="420" fill="url(#bg)"/>
  <g opacity="0.26" stroke="#9ad7ff" stroke-width="1">
    <path d="M80 318 C345 120, 658 90, 980 196 S1390 302, 1532 100" fill="none"/>
    <path d="M84 236 C356 58, 712 52, 1030 146 S1372 246, 1518 222" fill="none"/>
    <path d="M90 370 C446 208, 760 236, 1090 300 S1348 360, 1515 314" fill="none"/>
  </g>
  <g fill="#e6f7ff" opacity="0.88">
    <circle cx="246" cy="206" r="3"/>
    <circle cx="528" cy="118" r="3"/>
    <circle cx="824" cy="146" r="3"/>
    <circle cx="1088" cy="216" r="3"/>
    <circle cx="1326" cy="284" r="3"/>
  </g>
  <g transform="translate(1120 78)" opacity="0.85">
    <circle cx="120" cy="120" r="78" fill="none" stroke="#79e2b8" stroke-width="2"/>
    <path d="M48 120h144M120 48v144M68 72c38 28 68 28 104 0M68 168c38-28 68-28 104 0" fill="none" stroke="#79e2b8" stroke-width="1.5" opacity="0.8"/>
    <circle cx="120" cy="120" r="4" fill="#79e2b8"/>
  </g>
  <g transform="translate(118 108)">
    <text x="0" y="0" fill="#f8fbff" font-family="Inter, ui-sans-serif, system-ui, -apple-system, Segoe UI, sans-serif" font-size="68" font-weight="700" letter-spacing="0">sat-geoip</text>
    <text x="2" y="54" fill="#b7c7d8" font-family="Inter, ui-sans-serif, system-ui, -apple-system, Segoe UI, sans-serif" font-size="24">Satellite internet GeoIP / PoP / BGP intelligence</text>
    <g transform="translate(2 104)" font-family="Inter, ui-sans-serif, system-ui, -apple-system, Segoe UI, sans-serif" font-size="18" fill="#d8f3ff">
      <rect x="0" y="-28" width="186" height="42" rx="5" fill="#19334d" stroke="#355c7c"/>
      <text x="18" y="0">operator feeds</text>
      <rect x="214" y="-28" width="136" height="42" rx="5" fill="#193d35" stroke="#3f7565"/>
      <text x="232" y="0">RIPEstat</text>
      <rect x="378" y="-28" width="126" height="42" rx="5" fill="#23324a" stroke="#4a6387"/>
      <text x="396" y="0">MMDB</text>
      <rect x="532" y="-28" width="170" height="42" rx="5" fill="#2a3340" stroke="#637084"/>
      <text x="550" y="0">CSV / JSONL</text>
    </g>
  </g>
  <g opacity="0.45" filter="url(#soft)">
    <circle cx="1460" cy="88" r="2" fill="#ffffff"/>
    <circle cx="1522" cy="174" r="2" fill="#ffffff"/>
    <circle cx="1368" cy="74" r="1.5" fill="#ffffff"/>
    <circle cx="1004" cy="76" r="1.5" fill="#ffffff"/>
    <circle cx="918" cy="344" r="1.5" fill="#ffffff"/>
  </g>
</svg>
